<?xml version="1.0" encoding="UTF-8" standalone="no"?>
<!DOCTYPE svg PUBLIC "-//W3C//DTD SVG 1.1//EN" "http://www.w3.org/Graphics/SVG/1.1/DTD/svg11.dtd">
<svg width="100%" height="100%" viewBox="0 0 1024 1024" version="1.1" xmlns="http://www.w3.org/2000/svg" xmlns:xlink="http://www.w3.org/1999/xlink" xml:space="preserve" xmlns:serif="http://www.serif.com/" style="fill-rule:evenodd;clip-rule:evenodd;stroke-linejoin:round;stroke-miterlimit:2;">
    <g>
        <g transform="matrix(1,0,0,1,0.167566,-2.407767)">
            <path d="M454,906.09C447.16,907.8 441.68,908.28 426,908.57C405.76,908.93 403.55,908.69 395.91,905.29C389.53,902.46 386.56,898.02 386.72,891.56C386.99,880.47 396.96,870.16 411.39,866.03C414.99,865 418.44,863.85 419.06,863.46C420.32,862.68 420.21,861.4 417.21,842C411.21,803.22 409.72,782.55 410.15,744.43C410.4,721.69 410.19,713 409.38,713C407.75,713 398.8,726.63 393.44,737.29C388.83,746.45 388.81,746.54 389.45,754C389.81,758.12 390.35,764.44 390.65,768.04C391.33,776.08 389.67,780.63 384.66,784.45C380.58,787.56 374.57,787.81 369.65,785.08C366.92,783.57 366.73,783.6 365.15,785.93C364.24,787.26 361.02,790.93 358,794.08C351.61,800.73 346.78,802.56 338.61,801.46C328.47,800.08 320.95,793.72 316.88,783.08C314.08,775.75 314.08,761.85 316.87,750.5C326.01,713.34 349.8,674.5 380.88,646.01L389.98,637.66L376.74,630.72C361.84,622.91 344.18,611.56 333,602.58C314.97,588.12 287.75,558.67 277.53,542.57C264.28,521.7 252.03,494.79 246.55,474.5C235.23,432.56 233.75,391.47 241.97,347C249.13,308.3 262.41,273.99 281.84,244C290.49,230.66 309.14,208.03 320.65,196.93C344.33,174.1 361.75,161.78 390.5,147.53C427.52,129.18 467.04,120 508.98,120C544.68,120 567.69,123.35 598.25,133C623.78,141.05 639.47,148.76 665.32,165.93C703.78,191.49 740.2,233.48 757.76,272.5C772.2,304.59 776.77,319.2 783.4,354.5C787.79,377.83 788.11,419.71 784.08,442.5C780.28,463.98 775.5,482.17 770.02,496C756.88,529.14 731.2,565.98 704,590.73C685.59,607.47 665.95,621.16 646.96,630.47C640.66,633.56 635.35,636.52 635.17,637.04C634.99,637.56 639.84,642.77 645.94,648.62C658.62,660.77 667.37,670.95 675.58,683.07C682.56,693.4 691.28,708.33 694.39,715.31C695.67,718.16 697.66,722.53 698.81,725C705.96,740.35 709.19,753.81 709.25,768.52C709.31,781.31 707.91,785.54 701.13,793.17C695.16,799.88 689.45,802.39 681.62,801.76C671.96,800.99 664.1,795.92 659.89,787.75C658.83,785.69 657.8,784 657.61,784C657.41,784 655.22,784.9 652.74,786C645.08,789.39 637.45,786.63 633.84,779.17C631.96,775.29 631.82,773.9 632.53,766.65C632.97,762.17 633.37,755.35 633.41,751.5C633.47,744.98 633.12,743.8 628.31,734.33C621.11,720.19 614.45,711.12 612.66,713.04C612.43,713.29 612.66,722.5 613.18,733.5C614.8,767.77 612.27,809.05 606.36,844.58C605.53,849.57 604.77,855.83 604.68,858.49L604.5,863.33L609.25,864.56C624.51,868.52 637,880.65 637,891.49C637,897.59 636.04,899.17 629.22,904.24L623.5,908.5L601.64,908.8C583.67,909.06 562.847,905.987 561.497,904.797C560.597,904.007 553.467,902.316 547.42,896.49C544.362,893.544 543.05,885.82 538.92,862C537.73,855.12 535.71,845.45 534.42,840.5C533.14,835.55 531.82,830.38 531.49,829C531.16,827.62 530.41,824.86 529.82,822.86L528.76,819.23L512.13,818.77C502.98,818.52 495.14,818.63 494.7,819.01C492.72,820.72 485.02,855.73 482.48,874.5C480.61,888.37 477.83,895.52 472.87,899.24C469.16,902.01 466.59,902.95 454,906.09ZM487.5,650.93C501.21,652.22 535.99,651.45 550.26,649.54C578.55,645.76 603.89,638.41 632,625.84C647.97,618.69 669.49,605.66 682.85,595.04C695.27,585.18 715.07,565.73 723.62,555C744.16,529.24 761.68,493.47 769.18,462.01C774.07,441.46 775.11,432.96 775.68,408.5C776.36,379.71 775.65,371.54 769.89,342C766.51,324.68 756.57,295.94 747.41,277C738.2,257.95 729.95,244.98 715.61,227C707.22,216.47 680.96,190.49 672,183.85C649.81,167.41 627.12,154.83 604.64,146.53C533.48,120.23 450.37,126.37 384.5,162.79C362.11,175.16 343.18,189.87 322.94,210.64C312.36,221.48 294.97,243.28 291.43,250.13C290.63,251.68 288.88,254.56 287.55,256.53C284.28,261.35 274.79,279.99 270.4,290.21C263.08,307.27 257.35,326.59 252.95,349C245.4,387.5 246,427.79 254.63,461C255.98,466.23 257.29,471.4 257.52,472.5C257.76,473.6 259.05,477.73 260.39,481.68C277.34,531.5 310.7,575.13 354.5,604.75C391.49,629.77 439.47,646.43 487.5,650.93ZM411,898.41C412.38,898.65 419.8,898.7 427.5,898.51C442.63,898.14 457.79,895.88 464.55,892.98C470.13,890.59 470.1,890.67 475.5,856.5C476.36,851 477.92,843.35 478.96,839.5C480.01,835.65 481.8,828.99 482.95,824.69C484.99,817.08 484.97,815 482.85,815C482.29,815 478.15,813.41 473.66,811.46C462.28,806.51 459.42,802.74 464.52,799.4C466.92,797.82 467.34,797.88 473.77,800.75C483.88,805.25 496.05,807.97 509,808.6C523.5,809.31 533.16,807.65 547.11,802.05C556.13,798.44 557.75,798.06 559.77,799.15C561.54,800.09 562.03,801.1 561.8,803.34C561.63,804.97 560.83,806.64 560,807.07C554.94,809.66 542.61,815 541.65,815.02C537.89,815.07 537.79,816.6 540.88,826.61C544.72,839.07 546.37,846.92 549.96,869.8C551.54,879.86 553.4,888.78 554.09,889.61C558.31,894.69 577.05,898.38 599,898.45C616.64,898.51 624.21,897.14 626.61,893.47C627.98,891.38 627.94,890.81 626.16,887.33C622.93,881.02 612.41,874.79 602.76,873.47C593.87,872.26 593,871.65 593,866.75C593,864.38 594.1,856.16 595.44,848.47C599.22,826.86 600.87,813.3 602.5,790.62C605.45,749.53 604.13,720.2 597.45,678.42C596.7,673.75 598.56,671 602.45,671C606.07,671 607.22,673.38 608.66,683.77L610,693.45L616.34,699.98C629.55,713.58 641.39,734.25 644.08,748.4C644.79,752.15 644.66,754.66 643.57,758.45C642.77,761.23 641.81,765.81 641.44,768.64C640.87,773.06 641.07,774.07 642.89,775.89C646.62,779.62 649.96,778.04 653.38,770.92C655.76,765.96 658.92,764.72 662.02,767.51C663.03,768.43 665.06,772.47 666.53,776.49C670.25,786.7 674.04,790.23 681.89,790.8C687.68,791.22 687.89,791.14 692.38,787C697.68,782.12 698.99,778.5 698.99,768.71C699.02,743.53 681.32,704.92 655.59,674C642.07,657.75 624.12,641.49 620.62,642.31C619.45,642.58 613.33,644.63 607,646.86C566.76,661.03 520.03,665.94 477.5,660.46C447.71,656.62 438.68,654.47 407.8,643.91L401.1,641.62L397.31,645.06C385.8,655.5 367.58,674.55 362.35,681.61C347.88,701.13 339.29,717.08 329.84,741.92C326.38,751.03 325.76,753.87 325.3,762.97C324.6,776.46 325.8,781.06 331.47,786.73C335.35,790.61 336.19,791 340.72,791C349.15,791 355.32,785.29 358.43,774.6C361.27,764.82 367.16,762.99 370.09,770.96C372.15,776.55 375.09,778.73 378.48,777.19C381.88,775.64 382.63,770.52 380.62,762.52C379.73,758.98 379,754.25 379,752.01C379,740.24 391.91,716.33 406.6,700.91C410.06,697.28 413.12,693.23 413.4,691.91C413.69,690.58 414.62,685.94 415.47,681.59C417.2,672.77 418.21,671 421.5,671C426.66,671 427.34,675.74 424.51,691.84C421.36,709.72 419.73,738.13 420.36,764C421.13,795.6 423.08,814.89 429.16,850.83C429.27,851.48 429.37,852.1 429.48,852.7C431.46,864.42 432.21,868.83 430.35,870.85C429.14,872.17 426.8,872.47 422.95,873.12C413.65,874.69 402.64,880.16 399.52,884.76C396.8,888.75 396.24,893.17 398.25,894.72C399.44,895.64 405.64,897.44 411,898.41ZM641.82,389.07C632.54,391.75 612.16,392.6 604,390.64C593.75,388.18 582.27,383.25 573.78,377.66C546.82,359.9 532.82,330.55 536.1,298.64C537.28,287.08 539.24,280.47 544.72,269.5C551.46,256.03 557.98,248.08 569.5,239.29C575.56,234.66 590.64,227.45 598.5,225.42C608.15,222.92 630.68,222.89 640.5,225.37C673.29,233.63 696.72,259.13 703.02,293.4C704.73,302.73 703.74,320.26 700.94,330C692.9,358 669.93,380.95 641.82,389.07ZM419.2,390.93C403.69,394.06 381.49,390.43 365.2,382.1C358.79,378.82 345.51,368.39 341.33,363.35C331.96,352.05 325.25,339.14 321.91,326C319.61,316.94 320.1,294.24 322.8,284.71C326.94,270.15 335.56,255.86 346.4,245.63C355.81,236.75 372.53,227.89 385.15,225.09C393.37,223.27 406.36,222.78 415,223.98C458.21,229.95 488.18,264.34 488.21,308C488.24,343.17 466.98,373.75 433.73,386.36C428.65,388.29 422.12,390.34 419.2,390.93ZM393.05,382.47C402.54,384.19 402.96,384.2 412.64,382.99C430.38,380.76 444.61,373.56 458.04,360.01C472.91,345 479.46,328.94 479.45,307.5C479.45,293.22 477.88,286.44 471.59,273.5C461.88,253.51 444.78,239.19 424.39,233.97C413.74,231.25 395.27,231.25 384.62,233.97C360.14,240.23 340.95,258.46 332.41,283.56C328.54,294.97 327.85,313.03 330.85,324.88C338.51,355.17 361.91,376.84 393.05,382.47ZM611.13,382.92C620.38,384.12 622.67,384.08 631,382.57C661.63,377.03 685.82,354.77 693.03,325.51C694.93,317.81 695.17,314.78 694.7,304.51C694.39,297.9 693.4,289.8 692.49,286.5C685.42,260.69 662.75,238.86 637.5,233.52C628.13,231.53 608.52,231.55 600.81,233.55C589.15,236.57 576.91,243.43 567.16,252.42C555.02,263.61 545.34,284.83 544.3,302.5C541.95,342.46 571.29,377.76 611.13,382.92ZM529.2,525.91C526.29,526.51 517.96,526.97 510.7,526.93C496.79,526.85 488.16,525.14 475.13,519.85C457.89,512.86 441.7,498.74 432.86,483C427.21,472.95 425.5,467.02 425.5,457.5C425.5,446.45 426.85,443.33 432.96,440.25C439.21,437.1 442.43,437.39 457.49,442.44C483.73,451.25 497.68,453.61 518.25,452.7C533,452.04 545.73,449.6 558.8,444.93C574.65,439.26 581.37,437.68 586.38,438.43C596,439.87 599.63,446.38 598.71,460.5C597.81,474.21 591.11,487.06 578.09,500.09C563.94,514.25 549.89,521.66 529.2,525.91ZM451.88,494.25C454.38,496.86 457.02,499 457.76,499C458.49,499 461.84,497.21 465.2,495.03C482.61,483.71 504.27,479.7 527.5,483.47C540.95,485.65 550.95,489.47 560.68,496.14C562.98,497.71 565.28,499 565.79,499C567.47,499 576.56,489.37 580.54,483.37C586.2,474.84 589.31,466.58 589.8,458.75C590.61,445.91 586.26,444.25 568.5,450.59C552.41,456.33 541.5,458.95 526.24,460.72C512.79,462.27 511,462.27 496.75,460.64C481.2,458.85 472.1,456.83 459.61,452.38C437.41,444.47 434.09,444.86 433.21,455.46C432.29,466.58 439.25,481.04 451.88,494.25ZM616.77,341.06C611.25,344.01 609.43,344.45 601.5,344.76C593.16,345.09 592.04,344.9 586.26,342.1C578.38,338.3 571.52,331.3 567.71,323.19C565,317.41 564.79,316.18 565.19,308.54C565.95,294.17 572.52,284.02 585.5,277.19C589.91,274.87 591.67,274.56 600.5,274.53C609.43,274.5 611.1,274.79 616.12,277.26C622.76,280.52 630.27,288.17 633.32,294.78C635.1,298.63 635.5,301.33 635.5,309.5C635.5,318.51 635.22,320.03 632.71,324.79C628.74,332.33 623.96,337.21 616.77,341.06ZM439.23,341.21C433.61,343.98 431.27,344.54 424.52,344.75C408.97,345.25 397.32,337.68 390.41,322.58C388.04,317.41 387.81,315.89 388.18,308.11C388.55,300.45 389.02,298.63 392.13,292.95C396.38,285.21 403.38,279.13 411.66,276.01C416.42,274.21 418.97,273.88 425.5,274.23C439.27,274.97 449.91,282.11 455.7,294.5C458.13,299.71 458.49,301.68 458.46,309.5C458.42,317.17 458.02,319.32 455.74,324.04C451.69,332.39 446.8,337.48 439.23,341.21ZM503.68,517.9C507.98,518.36 512.85,518.59 514.5,518.41C525.65,517.25 529.23,516.7 535,515.31C543.55,513.24 558.31,506.43 557.77,504.8C557.04,502.63 543.85,496.22 534.5,493.5C526.89,491.28 523.49,490.87 512.5,490.83C498.59,490.78 493.32,491.63 482.9,495.57C475.57,498.34 467,503.4 467,504.97C467,506.57 480.21,512.79 488.39,515.03C492.5,516.16 499.38,517.45 503.68,517.9ZM431.38,306.42C435.31,308.35 436.4,308.36 440.02,306.49C443.7,304.59 445,302.17 445,297.24C445,291.7 441.58,288.67 435.35,288.67C431.51,288.67 430.27,289.15 428.34,291.39C424.25,296.15 425.77,303.65 431.38,306.42ZM606.4,304.6C608.27,306.47 610.77,308 611.95,308C614.93,308 619.73,305.37 620.97,303.06C622.8,299.63 622.17,294.31 619.59,291.31C617.54,288.92 616.45,288.52 612.41,288.6C608.55,288.68 607.22,289.21 605.33,291.41C601.79,295.52 602.18,300.38 606.4,304.6Z" style="fill:rgb(4,7,7);fill-rule:nonzero;"/>
        </g>
        <g transform="matrix(1,0,0,1,0.167566,-2.407767)">
            <path d="M487.5,650.93C439.47,646.43 391.49,629.77 354.5,604.75C310.7,575.13 277.34,531.5 260.39,481.68C259.05,477.73 257.76,473.6 257.52,472.5C257.29,471.4 255.98,466.23 254.63,461C246,427.79 245.4,387.5 252.95,349C255.15,337.81 257.67,327.39 260.57,317.64C255.44,335.68 250.38,360.04 251.55,362.85C251.93,363.76 252.43,370.12 252.67,377C252.92,383.88 253.77,394 254.57,399.5C256.52,412.98 261.71,434.33 265.01,442.5C265.45,443.6 267.47,448.77 269.48,454C276.36,471.83 288.76,493.73 302.33,512C311.1,523.81 313.46,526.62 322.49,536C339.17,553.34 354.33,565.68 373.5,577.54C391.71,588.82 422.33,601.65 442.5,606.46C445.8,607.25 452.33,608.8 457,609.9C465.35,611.88 483.64,614.63 493.5,615.4C496.25,615.62 507.5,615.63 518.5,615.42C538.56,615.06 555.22,612.99 575.19,608.4C584.93,606.16 609.51,598.01 619.66,593.66C635.52,586.85 661.68,570.92 675.14,559.88C690.38,547.37 707.88,529.5 718.6,515.5C730.33,500.17 747.46,470.64 752.39,457.26C753.15,455.19 755.43,449 757.45,443.5C765.03,422.87 769.7,399.16 770.93,375C771.37,366.48 771.87,359.05 772.06,358.5C772.38,357.53 772.24,355.1 771.73,351.69C775.8,373.77 776.28,383.13 775.68,408.5C775.11,432.96 774.07,441.46 769.18,462.01C761.68,493.47 744.16,529.24 723.62,555C715.07,565.73 695.27,585.18 682.85,595.04C669.49,605.66 647.97,618.69 632,625.84C603.89,638.41 578.55,645.76 550.26,649.54C535.99,651.45 501.21,652.22 487.5,650.93ZM366.01,766.06C367.67,766.01 369.22,766.57 369.88,767.74C371.49,770.63 372.21,768.58 373.56,757.28C376.02,736.75 378.48,728.81 388.32,709.66C395.02,696.61 400.26,689.65 412.68,677.25C414.98,674.95 416.88,673.3 418.39,672.27C417.26,673.65 416.49,676.4 415.47,681.59C414.73,685.34 413.94,689.32 413.55,691.19C413.9,689.5 414.51,686.32 415.03,683.5C415.64,680.2 416.38,676.6 416.68,675.5C417.45,672.68 412.12,680.58 409.6,686C408.44,688.47 407.01,690.5 406.41,690.5C404.63,690.5 394.24,703.05 393.67,705.89C393.38,707.34 392.21,709.6 391.07,710.92C389.93,712.23 389,713.96 389,714.75C389,716.8 386.24,722.37 384.06,724.71C379.86,729.22 378.61,733.28 378.18,743.84C377.93,750.03 378.27,756.58 379.03,760.14C380.05,764.96 380.05,766.54 379,768.5C377.47,771.36 372.74,773.34 371.17,771.77C370.62,771.22 370.4,771.26 370.48,771.95C370.35,771.63 370.22,771.3 370.09,770.96C369.03,768.06 367.57,766.46 366.01,766.06ZM606.13,673.03C607.44,674.03 608.95,675.43 610.75,677.25C625.33,692.04 631.92,700.91 636.58,712.04C638.07,715.59 640.34,720.75 641.62,723.5C646.35,733.65 649.58,749.29 649.92,763.68C649.97,765.43 650.66,767.51 651.46,768.32C652.74,769.6 652.49,770.22 649.45,773.35C647.49,775.37 645.37,776.69 644.58,776.39C642.3,775.52 641.77,771.16 643.52,767.68C644.59,765.55 645.32,760.48 645.71,752.36L646.29,740.21L642.45,731.86C640.33,727.26 637.78,722.3 636.79,720.83C635.8,719.37 634.7,716.67 634.35,714.83C633.54,710.63 628.69,700.82 626.52,699.02C625.62,698.27 623.75,695.73 622.37,693.38C620.99,691.02 618.97,688.81 617.88,688.46C616.79,688.11 614.96,685.92 613.83,683.58C611.46,678.7 607.99,675.82 608.01,678.74C608.01,679.01 608.05,679.5 608.11,680.14C607.53,676.65 606.93,674.42 606.13,673.03ZM565.23,894.85C565.4,894.38 564.04,892.61 561.75,890.38C559.14,887.84 556.97,884.8 556.92,883.63C556.88,882.46 556.65,880.6 556.41,879.5C556.17,878.4 555.78,874.58 555.54,871C555.31,867.42 554.62,862.03 554.02,859C553.42,855.97 552.47,848.55 551.91,842.5C550.95,832.2 551.05,830.84 553.42,821.07C554.82,815.33 556.42,810.18 556.98,809.62C558.39,808.21 558.29,809.49 556.43,816.54C554.39,824.28 554.44,841.57 556.58,862.5C558.39,880.3 560.18,885.7 566.41,892.21C569.74,895.7 570.39,895.98 580.55,897.48C574.72,896.86 569.5,895.96 565.23,894.85ZM454.5,895.11C453.2,895.67 453.9,895.75 456.5,895.33C456.73,895.3 456.98,895.25 457.24,895.2C454.08,895.92 450.39,896.56 446.38,897.08C448.45,896.71 449.9,896.29 450.42,895.86C451.01,895.37 453.45,893.59 455.84,891.91C461.89,887.65 464.62,881.22 466.64,866.39C469.93,842.36 468.39,812.67 463.49,805.69C463.32,805.43 463.16,805.19 463.01,804.96C464.57,806.9 468.1,809.04 473.66,811.46C475.79,812.38 477.84,813.22 479.47,813.86C477.49,813.11 474.24,811.77 471.5,810.58C468.2,809.14 466.24,808.55 467.16,809.27C471.01,812.33 472.86,847.81 469.67,857.57C468.78,860.28 467.82,865.88 467.54,870C466.56,884.05 466.22,885.12 461.16,889.87C458.6,892.28 455.6,894.63 454.5,895.11ZM560.5,676.42C548.74,679.5 544,680.29 544,679.2C544,678.22 549.36,676.48 555.5,675.47C565.82,673.78 588.57,665.97 595.04,661.91C597.53,660.35 600.92,657.54 602.57,655.69C605.91,651.91 608.97,650 611.69,650C612.7,650 614.74,648.87 616.24,647.48C617.73,646.09 620.43,644.71 622.23,644.4C625.28,643.88 625.35,643.93 623.36,645.17C622.18,645.9 616.05,649.98 609.74,654.23C593.49,665.19 579.7,671.41 560.5,676.42ZM482.65,678.86C484.26,679.8 484.11,679.93 481.5,679.85C474.31,679.63 447.31,671.71 437.2,666.84C430.28,663.51 432.84,663.81 443.55,667.58C457.85,672.62 459.23,673.07 461.9,673.61C463.23,673.88 465.03,674.48 465.9,674.95C467.72,675.92 472.99,677.06 477.65,677.49C479.38,677.65 481.63,678.27 482.65,678.86ZM432,663.6C432,664.85 425.23,661.3 417.5,656.02C415.3,654.52 410.24,651.37 406.25,649.03C402.26,646.69 399,644.61 399,644.42C399,644.23 402.25,645.64 406.22,647.54C410.19,649.44 413.91,651 414.47,651C415.04,651.01 416.85,652.25 418.5,653.78C420.15,655.3 423.86,658.04 426.75,659.87C429.64,661.71 432,663.39 432,663.6ZM521,681.74C523.07,682.68 521.85,682.86 514,682.8C505.04,682.73 486.05,681.39 485.45,680.78C484.52,679.85 518.89,680.78 521,681.74ZM652.86,771.96C653.03,771.21 653.04,770.39 652.93,769.41C652.81,768.32 656.48,766.06 658.42,766.03C658.62,766.03 658.81,766.04 658.99,766.06C656.94,765.93 654.98,767.58 653.38,770.92C653.21,771.28 653.03,771.63 652.86,771.96ZM741.95,266.23C734.58,252.75 725.95,239.96 715.61,227C727.08,241.39 734.66,252.57 741.95,266.23ZM609.34,688.68C610.18,693.3 611.09,694.53 616.39,700C629.59,713.64 641.4,734.29 644.08,748.4C641.39,734.25 629.55,713.58 616.34,699.98L610,693.45L609.34,688.68ZM561.7,801.19C562.96,804.04 560.9,808.09 556.88,808.7C556.76,808.72 556.6,808.76 556.41,808.81C557.79,808.17 559.03,807.57 560,807.07C560.83,806.64 561.63,804.97 561.8,803.34C561.89,802.46 561.87,801.76 561.7,801.19ZM266.06,301.11C267.44,297.37 268.89,293.74 270.4,290.21C271.77,287.03 273.63,283.03 275.64,278.88C272.17,286.27 268.73,294.2 266.06,301.11ZM769.9,342.08C768.68,336.5 767.02,330.04 765.11,323.5C764.65,321.91 764.18,320.34 763.7,318.79C766.43,327.39 768.62,335.5 769.89,342L769.9,342.08ZM481.71,814.69C482.3,814.89 482.7,815 482.85,815C483.64,815 484.14,815.29 484.35,816.05C484.33,816.02 484.32,816 484.3,815.98C483.97,815.69 482.91,815.17 481.71,814.69ZM598.23,672.93C597.36,674.2 597.07,676.07 597.45,678.42C596.99,675.52 597.17,674.13 598.23,672.93ZM546.76,813.09C544.36,814.21 542.32,815.01 541.78,815.02C539.73,815.04 538.73,815.45 538.69,817.3C538.72,815.47 539.69,815.04 541.65,815.02C542.02,815.01 544.08,814.21 546.76,813.09ZM381.15,774.06C381.98,771.41 381.83,767.35 380.62,762.52C381.89,767.58 382.06,771.48 381.15,774.06ZM647.11,777.82C648.15,777.6 649.24,776.85 650.55,775.55C650.58,775.51 650.62,775.47 650.65,775.44C649.48,776.87 648.31,777.66 647.11,777.82ZM616.36,897.69C622.21,896.84 625.24,895.53 626.61,893.47C625.22,895.59 622.12,896.94 616.36,897.69ZM359.76,771.02C360.45,769.48 361.21,768.21 361.81,767.68C362,767.5 362.22,767.33 362.44,767.18C361.48,768.03 360.56,769.32 359.76,771.02ZM484.44,816.58C484.57,817.96 484.09,820.4 483.02,824.42C483.93,820.98 484.48,817.86 484.44,816.58ZM554.09,889.61C553.4,888.78 551.54,879.86 549.96,869.8C551.52,879.7 553.37,888.53 554.13,889.66L554.09,889.61ZM411,898.41C408.15,897.89 405.07,897.14 402.62,896.42C405.2,897.18 408.4,897.94 411,898.34C411.45,898.41 411.95,898.47 412.48,898.53C411.78,898.5 411.27,898.45 411,898.41ZM663.44,769.59C664.43,771.22 665.43,773.48 666.53,776.49C665.59,773.93 664.43,771.35 663.44,769.59ZM554.49,890.04C555.19,890.7 556.45,891.51 557.87,892.28C556.42,891.58 555.28,890.83 554.49,890.04ZM462.11,802.4C462.15,801.32 462.94,800.43 464.52,799.4C463.05,800.36 462.25,801.35 462.11,802.4ZM461.16,894.18C462.43,893.79 463.66,893.35 464.65,892.93C465.43,892.6 466.09,892.31 466.68,891.97C466.07,892.33 465.37,892.63 464.55,892.98C463.59,893.39 462.45,893.79 461.16,894.18ZM600.4,671.31C600.75,671.17 601.11,671.09 601.49,671.06C601.1,671.11 600.74,671.2 600.4,671.31ZM421.21,671.01C421.26,671 421.3,671 421.35,671L421.42,671C421.35,671 421.28,671 421.21,671.01Z" style="fill:rgb(24,141,110);fill-rule:nonzero;"/>
        </g>
        <g transform="matrix(1,0,0,1,0.167566,-2.407767)">
            <path d="M451.88,494.25C439.25,481.04 432.29,466.58 433.21,455.46C434.09,444.86 437.41,444.47 459.61,452.38C472.1,456.83 481.2,458.85 496.75,460.64C511,462.27 512.79,462.27 526.24,460.72C541.5,458.95 552.41,456.33 568.5,450.59C586.26,444.25 590.61,445.91 589.8,458.75C589.31,466.58 586.2,474.84 580.54,483.37C576.56,489.37 567.47,499 565.79,499C565.28,499 562.98,497.71 560.68,496.14C550.95,489.47 540.95,485.65 527.5,483.47C504.27,479.7 482.61,483.71 465.2,495.03C461.84,497.21 458.49,499 457.76,499C457.02,499 454.38,496.86 451.88,494.25ZM482.65,678.86C481.63,678.27 479.38,677.65 477.65,677.49C472.99,677.06 467.72,675.92 465.9,674.95C465.03,674.48 463.23,673.88 461.9,673.61C459.23,673.07 457.85,672.62 443.55,667.58C434.18,664.28 431.05,663.64 435.04,665.76C433.45,665.03 431.89,664.29 430.38,663.53C431.41,663.92 432,663.97 432,663.6C432,663.39 429.64,661.71 426.75,659.87C423.86,658.04 420.15,655.3 418.5,653.78C416.85,652.25 415.04,651.01 414.47,651C413.91,651 410.19,649.44 406.22,647.54C402.25,645.64 399,644.23 399,644.42C399,644.61 402.26,646.69 406.25,649.03C409.51,650.94 413.48,653.39 416.02,655.04C412.98,653.11 409.14,650.74 406.23,649.03L398.97,644.75L395,647.5C394.46,647.88 393.78,648.41 393,649.07C394.51,647.63 395.95,646.29 397.31,645.06L401.1,641.62L407.8,643.91C438.68,654.47 447.71,656.62 477.5,660.46C520.03,665.94 566.76,661.03 607,646.86C613.33,644.63 619.45,642.58 620.62,642.31C624.12,641.49 642.07,657.75 655.59,674C668.98,690.09 680.19,708.27 687.87,725.54C694.96,741.44 699,756.54 698.99,768.71C699,756.63 694.94,741.47 687.87,725.54C679.77,707.38 667.69,688.18 653.13,671.14C643.26,659.58 628.91,646.27 625.37,645.38C624.5,645.16 623.6,645.25 622.55,645.69C622.91,645.45 623.18,645.28 623.36,645.17C625.35,643.93 625.28,643.88 622.23,644.4C620.43,644.71 617.73,646.09 616.24,647.48C614.74,648.87 612.7,650 611.69,650C608.97,650 605.91,651.91 602.57,655.69C600.92,657.54 597.53,660.35 595.04,661.91C588.57,665.97 565.82,673.78 555.5,675.47C549.36,676.48 544,678.22 544,679.2C544,679.6 544.62,679.75 545.98,679.63C541.07,680.51 536.08,681.21 531,681.73C528.57,681.98 525.4,682.15 521.84,682.25C521.74,682.11 521.45,681.94 521,681.74C518.99,680.82 487.52,679.94 485.53,680.67C483.91,680.39 482.3,680.1 480.7,679.8C480.99,679.83 481.25,679.84 481.5,679.85C484.11,679.93 484.26,679.8 482.65,678.86ZM454.5,895.11C455.6,894.63 458.6,892.28 461.16,889.87C466.22,885.12 466.56,884.05 467.54,870C467.82,865.88 468.78,860.28 469.67,857.57C472.86,847.81 471.01,812.33 467.16,809.27C466.24,808.55 468.2,809.14 471.5,810.58C474.24,811.77 477.49,813.11 479.46,813.86L479.47,813.86C480.36,814.2 481.12,814.49 481.71,814.69C482.91,815.17 483.97,815.69 484.3,815.98C484.32,816 484.33,816.02 484.35,816.05C484.39,816.21 484.42,816.38 484.44,816.58C484.48,817.86 483.93,820.98 483.02,824.42L482.95,824.69C481.8,828.99 480.01,835.65 478.96,839.5C477.92,843.35 476.36,851 475.5,856.5C470.89,885.65 470.24,889.87 466.68,891.97C466.09,892.31 465.42,892.6 464.65,892.93C463.66,893.35 462.43,893.79 461.16,894.18C459.97,894.53 458.66,894.87 457.24,895.2C456.98,895.25 456.73,895.3 456.5,895.33C453.9,895.75 453.2,895.67 454.5,895.11ZM546.76,813.09C549.7,811.86 553.38,810.23 556.41,808.81C556.6,808.76 556.76,808.72 556.88,808.7C558.83,808.4 560.32,807.29 561.2,805.9C560.91,806.43 560.55,806.95 560.1,807.44C559.08,808.54 558.21,810.17 557.49,812.3C558.25,809.02 558.04,808.56 556.98,809.62C556.42,810.18 554.82,815.33 553.42,821.07C551.05,830.84 550.95,832.2 551.91,842.5C552.47,848.55 553.42,855.97 554.02,859C554.62,862.03 555.31,867.42 555.54,871C555.78,874.58 556.17,878.4 556.41,879.5C556.65,880.6 556.88,882.46 556.92,883.63C556.97,884.8 559.14,887.84 561.75,890.38C564.04,892.61 565.4,894.38 565.23,894.85C562.3,894.09 559.81,893.23 557.87,892.28C556.45,891.51 555.19,890.7 554.49,890.04C554.36,889.91 554.24,889.79 554.13,889.66C553.37,888.53 551.52,879.7 549.96,869.8C546.37,846.92 544.72,839.07 540.88,826.61C539.4,821.83 538.66,818.98 538.69,817.3C538.73,815.45 539.73,815.04 541.78,815.02C542.32,815.01 544.36,814.21 546.76,813.09ZM652.86,771.96C652.12,773.38 651.39,774.53 650.65,775.44C650.62,775.47 650.58,775.51 650.55,775.55C649.24,776.85 648.15,777.6 647.11,777.82C645.74,777.99 644.34,777.34 642.89,775.89C641.07,774.07 640.87,773.06 641.44,768.64C641.81,765.81 642.77,761.23 643.57,758.45C644.66,754.66 644.79,752.15 644.08,748.4C641.4,734.29 629.59,713.64 616.39,700C611.09,694.53 610.18,693.3 609.34,688.68L608.66,683.77C608.48,682.43 608.3,681.23 608.11,680.14C608.05,679.5 608.01,679.01 608.01,678.74C607.99,675.82 611.46,678.7 613.83,683.58C614.96,685.92 616.79,688.11 617.88,688.46C618.97,688.81 620.99,691.02 622.37,693.38C623.75,695.73 625.62,698.27 626.52,699.02C628.69,700.82 633.54,710.63 634.35,714.83C634.7,716.67 635.8,719.37 636.79,720.83C637.78,722.3 640.33,727.26 642.45,731.86L646.29,740.21L645.71,752.36C645.32,760.48 644.59,765.55 643.52,767.68C641.77,771.16 642.3,775.52 644.58,776.39C645.37,776.69 647.49,775.37 649.45,773.35C652.11,770.61 652.63,769.79 651.86,768.77C652.38,768.87 653.07,768.53 654.33,767.7C653.48,768.31 652.88,768.96 652.93,769.41C653.04,770.39 653.03,771.21 652.86,771.96ZM381.15,774.06C380.62,775.57 379.73,776.62 378.48,777.19C375.3,778.64 372.52,776.8 370.48,771.95C370.4,771.26 370.62,771.22 371.17,771.77C372.74,773.34 377.47,771.36 379,768.5C380.05,766.54 380.05,764.96 379.03,760.14C378.27,756.58 377.93,750.03 378.18,743.84C378.61,733.28 379.86,729.22 384.06,724.71C386.24,722.37 389,716.8 389,714.75C389,713.96 389.93,712.23 391.07,710.92C392.21,709.6 393.38,707.34 393.67,705.89C394.24,703.05 404.63,690.5 406.41,690.5C407.01,690.5 408.44,688.47 409.6,686C412.12,680.58 417.45,672.68 416.68,675.5C416.38,676.6 415.64,680.2 415.03,683.5C414.51,686.32 413.9,689.5 413.55,691.19C413.49,691.48 413.44,691.73 413.4,691.91C413.12,693.23 410.06,697.28 406.6,700.91C391.91,716.33 379,740.24 379,752.01C379,754.25 379.73,758.98 380.62,762.52C381.83,767.35 381.98,771.41 381.15,774.06ZM618.45,648.39C610.27,654.72 601.39,660.21 591.9,664.84C597.78,661.86 603.58,658.39 609.74,654.23C612.89,652.11 615.99,650.03 618.45,648.39ZM650.13,765.34C650.01,764.78 649.94,764.21 649.92,763.68C649.87,761.39 649.74,759.06 649.55,756.73C649.74,758.99 649.87,761.25 649.94,763.5C649.96,764.09 650.03,764.73 650.13,765.34ZM363.58,680.02C363.07,680.66 362.61,681.26 362.2,681.81C361.39,682.91 360.59,684 359.81,685.08C360.63,683.93 361.48,682.78 362.35,681.61C362.7,681.13 363.11,680.6 363.58,680.02ZM658.55,766.03C659.15,766.01 659.71,766.12 660.26,766.36C659.83,766.18 659.41,766.08 658.99,766.06C658.85,766.04 658.7,766.03 658.55,766.03Z" style="fill:rgb(0,115,82);fill-rule:nonzero;"/>
        </g>
        <g transform="matrix(1,0,0,1,0.167566,-2.407767)">
            <path d="M741.95,266.23C743.77,269.63 745.57,273.2 747.41,277C753.13,288.83 759.16,304.48 763.7,318.79C764.18,320.35 764.65,321.91 765.11,323.5C767.02,330.04 768.68,336.5 769.9,342.08C770.58,345.55 771.19,348.73 771.73,351.69C772.24,355.1 772.38,357.53 772.06,358.5C771.87,359.05 771.37,366.48 770.93,375C769.7,399.16 765.03,422.87 757.45,443.5C755.43,449 753.15,455.19 752.39,457.26C747.46,470.64 730.33,500.17 718.6,515.5C707.88,529.5 690.38,547.37 675.14,559.88C661.68,570.92 635.52,586.85 619.66,593.66C609.51,598.01 584.93,606.16 575.19,608.4C555.22,612.99 538.56,615.06 518.5,615.42C507.5,615.63 496.25,615.62 493.5,615.4C483.64,614.63 465.35,611.88 457,609.9C452.33,608.8 445.8,607.25 442.5,606.46C422.33,601.65 391.71,588.82 373.5,577.54C354.33,565.68 339.17,553.34 322.49,536C313.46,526.62 311.1,523.81 302.33,512C288.76,493.73 276.36,471.83 269.48,454C267.47,448.77 265.45,443.6 265.01,442.5C261.71,434.33 256.52,412.98 254.57,399.5C253.77,394 252.92,383.88 252.67,377C252.43,370.12 251.93,363.76 251.55,362.85C250.38,360.04 255.44,335.68 260.57,317.64C262.27,311.9 264.1,306.4 266.06,301.11C268.73,294.2 272.17,286.27 275.64,278.88C280.09,269.72 285.29,259.85 287.55,256.53C288.88,254.56 290.63,251.68 291.43,250.13C294.97,243.28 312.36,221.48 322.94,210.64C343.18,189.87 362.11,175.16 384.5,162.79C450.37,126.37 533.48,120.23 604.64,146.53C627.12,154.83 649.81,167.41 672,183.85C680.96,190.49 707.22,216.47 715.61,227C725.95,239.96 734.58,252.75 741.95,266.23ZM366.01,766.06C364.83,765.77 363.6,766.15 362.44,767.18C362.22,767.33 362,767.5 361.81,767.68C361.21,768.21 360.45,769.48 359.76,771.02C359.27,772.06 358.82,773.26 358.43,774.6C355.32,785.29 349.15,791 340.72,791C336.19,791 335.35,790.61 331.47,786.73C325.8,781.06 324.6,776.46 325.3,762.97C325.76,753.87 326.38,751.03 329.84,741.92C338.72,718.57 346.85,703.08 359.81,685.08C360.59,684 361.39,682.91 362.2,681.81C362.61,681.26 363.07,680.66 363.58,680.02C369.2,673.02 382.56,658.99 393,649.07C393.78,648.41 394.46,647.88 395,647.5L398.97,644.75L406.23,649.03C409.14,650.74 412.98,653.11 416.02,655.04C416.6,655.42 417.1,655.75 417.5,656.02C422.95,659.74 427.92,662.6 430.38,663.53C431.89,664.29 433.45,665.03 435.04,665.76C435.61,666.06 436.33,666.42 437.2,666.84C446.96,671.54 472.48,679.09 480.7,679.8C482.3,680.1 483.91,680.39 485.53,680.67C485.43,680.7 485.4,680.74 485.45,680.78C486.05,681.39 505.04,682.73 514,682.8C520.15,682.85 522.23,682.74 521.84,682.25C525.4,682.15 528.57,681.98 531,681.73C536.08,681.21 541.07,680.51 545.98,679.63C548.26,679.43 552.61,678.47 559.56,676.67C559.7,676.63 559.85,676.59 559.99,676.56C560.16,676.51 560.33,676.47 560.5,676.42L560.58,676.4C572.47,673.29 582.28,669.72 591.9,664.84C601.39,660.21 610.27,654.72 618.45,648.39C620.22,647.22 621.65,646.27 622.55,645.69C623.6,645.25 624.5,645.16 625.37,645.38C628.91,646.27 643.26,659.58 653.13,671.14C667.69,688.18 679.77,707.38 687.87,725.54C694.96,741.44 699,756.54 698.99,768.71C698.99,778.5 697.68,782.12 692.38,787C687.89,791.14 687.68,791.22 681.89,790.8C674.04,790.23 670.25,786.7 666.53,776.49C665.43,773.48 664.43,771.22 663.44,769.59C662.88,768.59 662.38,767.85 662.02,767.51C661.43,766.98 660.84,766.6 660.26,766.36C659.71,766.12 659.15,766.01 658.55,766.03C657.28,766.05 655.55,766.84 654.33,767.7C653.07,768.53 652.38,768.87 651.86,768.77C651.75,768.62 651.62,768.48 651.46,768.32C650.9,767.76 650.4,766.59 650.13,765.34C650.03,764.73 649.96,764.09 649.94,763.5C649.87,761.25 649.74,758.99 649.55,756.73C648.51,744.45 645.59,732.03 641.62,723.5C640.34,720.75 638.07,715.59 636.58,712.04C631.92,700.91 625.33,692.04 610.75,677.25C608.95,675.43 607.44,674.03 606.13,673.03C605.24,671.5 604.1,671 602.45,671C602.11,671 601.79,671.02 601.49,671.06C601.11,671.09 600.75,671.17 600.4,671.31C599.48,671.62 598.75,672.17 598.23,672.93C597.17,674.13 596.99,675.52 597.45,678.42C604.13,720.2 605.45,749.53 602.5,790.62C600.87,813.3 599.22,826.86 595.44,848.47C594.1,856.16 593,864.38 593,866.75C593,871.65 593.87,872.26 602.76,873.47C612.41,874.79 622.93,881.02 626.16,887.33C627.94,890.8 627.98,891.37 626.62,893.45L626.61,893.47C625.24,895.53 622.21,896.84 616.36,897.69C612.13,898.24 606.47,898.47 599,898.45C592.46,898.43 586.21,898.09 580.55,897.48C570.39,895.98 569.74,895.7 566.41,892.21C560.18,885.7 558.39,880.3 556.58,862.5C554.44,841.57 554.39,824.28 556.43,816.54C556.89,814.78 557.24,813.39 557.49,812.3C558.21,810.17 559.08,808.54 560.1,807.44C560.55,806.95 560.91,806.43 561.2,805.9C562.12,804.44 562.35,802.66 561.7,801.19C561.44,800.31 560.84,799.72 559.77,799.15L559.75,799.13L559.73,799.12C559.26,798.87 558.82,798.71 558.28,798.64C556.55,798.43 553.97,799.3 547.11,802.05C533.16,807.65 523.5,809.31 509,808.6C496.05,807.97 483.88,805.25 473.77,800.75C467.34,797.88 466.92,797.82 464.52,799.4C462.94,800.43 462.15,801.32 462.11,802.4C462,803.22 462.3,804.07 463.01,804.96C463.16,805.19 463.32,805.43 463.49,805.69C468.39,812.67 469.93,842.36 466.64,866.39C464.62,881.22 461.89,887.65 455.84,891.91C453.45,893.59 451.01,895.37 450.42,895.86C449.9,896.29 448.45,896.71 446.38,897.08C440.53,897.84 434.01,898.35 427.5,898.51C421.32,898.67 415.32,898.66 412.48,898.53C411.95,898.47 411.45,898.41 411,898.34C408.42,897.94 405.24,897.19 402.68,896.43L402.62,896.42C400.47,895.78 398.81,895.15 398.25,894.72C396.24,893.17 396.8,888.75 399.52,884.76C402.64,880.16 413.65,874.69 422.95,873.12C426.8,872.47 429.14,872.17 430.35,870.85C432.21,868.83 431.46,864.42 429.48,852.7C429.37,852.1 429.27,851.48 429.16,850.83C423.08,814.89 421.13,795.6 420.36,764C419.73,738.13 421.36,709.72 424.51,691.84C427.34,675.74 426.66,671 421.5,671L421.35,671C421.3,671 421.26,671 421.21,671.01C420,671.05 419.12,671.37 418.39,672.27C416.88,673.3 414.98,674.95 412.68,677.25C400.26,689.65 395.02,696.61 388.32,709.66C378.48,728.81 376.02,736.75 373.56,757.28C372.21,768.58 371.49,770.63 369.88,767.74C369.22,766.57 367.67,766.01 366.01,766.06ZM641.82,389.07C669.93,380.95 692.9,358 700.94,330C703.74,320.26 704.73,302.73 703.02,293.4C696.72,259.13 673.29,233.63 640.5,225.37C630.68,222.89 608.15,222.92 598.5,225.42C590.64,227.45 575.56,234.66 569.5,239.29C557.98,248.08 551.46,256.03 544.72,269.5C539.24,280.47 537.28,287.08 536.1,298.64C532.82,330.55 546.82,359.9 573.78,377.66C582.27,383.25 593.75,388.18 604,390.64C612.16,392.6 632.54,391.75 641.82,389.07ZM419.2,390.93C422.12,390.34 428.65,388.29 433.73,386.36C466.98,373.75 488.24,343.17 488.21,308C488.18,264.34 458.21,229.95 415,223.98C406.36,222.78 393.37,223.27 385.15,225.09C372.53,227.89 355.81,236.75 346.4,245.63C335.56,255.86 326.94,270.15 322.8,284.71C320.1,294.24 319.61,316.94 321.91,326C325.25,339.14 331.96,352.05 341.33,363.35C345.51,368.39 358.79,378.82 365.2,382.1C381.49,390.43 403.69,394.06 419.2,390.93ZM529.2,525.91C549.89,521.66 563.94,514.25 578.09,500.09C591.11,487.06 597.81,474.21 598.71,460.5C599.63,446.38 596,439.87 586.38,438.43C581.37,437.68 574.65,439.26 558.8,444.93C545.73,449.6 533,452.04 518.25,452.7C497.68,453.61 483.73,451.25 457.49,442.44C442.43,437.39 439.21,437.1 432.96,440.25C426.85,443.33 425.5,446.45 425.5,457.5C425.5,467.02 427.21,472.95 432.86,483C441.7,498.74 457.89,512.86 475.13,519.85C488.16,525.14 496.79,526.85 510.7,526.93C517.96,526.97 526.29,526.51 529.2,525.91Z" style="fill:rgb(28,175,135);fill-rule:nonzero;"/>
        </g>
        <g transform="matrix(1,0,0,1,0.167566,-2.407767)">
            <path d="M503.68,517.9C499.38,517.45 492.5,516.16 488.39,515.03C480.21,512.79 467,506.57 467,504.97C467,503.4 475.57,498.34 482.9,495.57C493.32,491.63 498.59,490.78 512.5,490.83C523.49,490.87 526.89,491.28 534.5,493.5C543.85,496.22 557.04,502.63 557.77,504.8C558.31,506.43 543.55,513.24 535,515.31C529.23,516.7 525.65,517.25 514.5,518.41C512.85,518.59 507.98,518.36 503.68,517.9Z" style="fill:rgb(255,44,26);fill-rule:nonzero;"/>
        </g>
        <g transform="matrix(1,0,0,1,-0.04001,-2.407767)">
            <path d="M393.05,382.47C361.91,376.84 338.51,355.17 330.85,324.88C327.85,313.03 328.54,294.97 332.41,283.56C340.95,258.46 360.14,240.23 384.62,233.97C395.27,231.25 413.74,231.25 424.39,233.97C444.78,239.19 461.88,253.51 471.59,273.5C477.88,286.44 479.45,293.22 479.45,307.5C479.46,328.94 472.91,345 458.04,360.01C444.61,373.56 430.38,380.76 412.64,382.99C402.96,384.2 402.54,384.19 393.05,382.47ZM439.23,341.21C446.8,337.48 451.69,332.39 455.74,324.04C458.02,319.32 458.42,317.17 458.46,309.5C458.49,301.68 458.13,299.71 455.7,294.5C449.91,282.11 439.27,274.97 425.5,274.23C418.97,273.88 416.42,274.21 411.66,276.01C403.38,279.13 396.38,285.21 392.13,292.95C389.02,298.63 388.55,300.45 388.18,308.11C387.81,315.89 388.04,317.41 390.41,322.58C397.32,337.68 408.97,345.25 424.52,344.75C431.27,344.54 433.61,343.98 439.23,341.21ZM611.13,382.92C571.29,377.76 541.95,342.46 544.3,302.5C545.34,284.83 555.02,263.61 567.16,252.42C576.91,243.43 589.15,236.57 600.81,233.55C608.52,231.55 628.13,231.53 637.5,233.52C662.75,238.86 685.42,260.69 692.49,286.5C693.4,289.8 694.39,297.9 694.7,304.51C695.17,314.78 694.93,317.81 693.03,325.51C685.82,354.77 661.63,377.03 631,382.57C622.67,384.08 620.38,384.12 611.13,382.92ZM616.77,341.06C623.96,337.21 628.74,332.33 632.71,324.79C635.22,320.03 635.5,318.51 635.5,309.5C635.5,301.33 635.1,298.63 633.32,294.78C630.27,288.17 622.76,280.52 616.12,277.26C611.1,274.79 609.43,274.5 600.5,274.53C591.67,274.56 589.91,274.87 585.5,277.19C572.52,284.02 565.95,294.17 565.19,308.54C564.79,316.18 565,317.41 567.71,323.19C571.52,331.3 578.38,338.3 586.26,342.1C592.04,344.9 593.16,345.09 601.5,344.76C609.43,344.45 611.25,344.01 616.77,341.06ZM431.38,306.42C425.77,303.65 424.25,296.15 428.34,291.39C430.27,289.15 431.51,288.67 435.35,288.67C441.58,288.67 445,291.7 445,297.24C445,302.17 443.7,304.59 440.02,306.49C436.4,308.36 435.31,308.35 431.38,306.42ZM606.4,304.6C602.18,300.38 601.79,295.52 605.33,291.41C607.22,289.21 608.55,288.68 612.41,288.6C616.45,288.52 617.54,288.92 619.59,291.31C622.17,294.31 622.8,299.63 620.97,303.06C619.73,305.37 614.93,308 611.95,308C610.77,308 608.27,306.47 606.4,304.6Z" style="fill:rgb(254,254,254);fill-rule:nonzero;"/>
        </g>
    </g>
</svg>
